<svg xmlns="http://www.w3.org/2000/svg" width="1280" height="720" viewBox="0 0 1280 720" role="img" aria-labelledby="title desc">
  <title id="title">GTEC ETF Basket Control Dashboard preview</title>
  <desc id="desc">Static preview of the ETF control dashboard with NAV, exception counts, filters, tables, basket weights, and price waterfall cards.</desc>
  <rect width="1280" height="720" fill="#f5f7fb"/>
  <rect x="0" y="0" width="1280" height="88" fill="#ffffff"/>
  <line x1="0" y1="88" x2="1280" y2="88" stroke="#d8dee9"/>
  <text x="36" y="34" fill="#2563eb" font-family="Arial, sans-serif" font-size="13" font-weight="700">SYNTHETIC ETF OPERATIONS CONTROL</text>
  <text x="36" y="66" fill="#172033" font-family="Arial, sans-serif" font-size="30" font-weight="800">GTEC Basket Control Dashboard</text>
  <text x="1064" y="39" fill="#667085" font-family="Arial, sans-serif" font-size="14">Trade date 2026-06-15</text>
  <text x="1032" y="63" fill="#667085" font-family="Arial, sans-serif" font-size="14">Generated from DuckDB snapshot</text>

  <g>
    <rect x="36" y="116" width="366" height="176" rx="8" fill="#ffffff" stroke="#d8dee9"/>
    <text x="58" y="146" fill="#667085" font-family="Arial, sans-serif" font-size="13" font-weight="700">INDICATIVE NAV</text>
    <text x="58" y="206" fill="#172033" font-family="Arial, sans-serif" font-size="52" font-weight="800">$5.83</text>
    <text x="58" y="242" fill="#667085" font-family="Arial, sans-serif" font-size="15">ETF Mid</text>
    <text x="340" y="242" fill="#172033" font-family="Arial, sans-serif" font-size="15" font-weight="700">$5.94</text>
    <text x="58" y="268" fill="#667085" font-family="Arial, sans-serif" font-size="15">Premium / Discount</text>
    <text x="300" y="268" fill="#172033" font-family="Arial, sans-serif" font-size="15" font-weight="700">182.9 bps</text>
  </g>
  <g>
    <rect x="420" y="116" width="252" height="176" rx="8" fill="#ffffff" stroke="#d8dee9"/>
    <text x="442" y="146" fill="#667085" font-family="Arial, sans-serif" font-size="13" font-weight="700">EXCEPTION LOAD</text>
    <text x="442" y="206" fill="#172033" font-family="Arial, sans-serif" font-size="52" font-weight="800">23</text>
    <circle cx="448" cy="238" r="5" fill="#c2410c"/><text x="464" y="243" fill="#667085" font-family="Arial, sans-serif" font-size="15">High</text><text x="630" y="243" fill="#172033" font-family="Arial, sans-serif" font-size="15" font-weight="700">7</text>
    <circle cx="448" cy="266" r="5" fill="#b7791f"/><text x="464" y="271" fill="#667085" font-family="Arial, sans-serif" font-size="15">Medium</text><text x="622" y="271" fill="#172033" font-family="Arial, sans-serif" font-size="15" font-weight="700">13</text>
  </g>
  <g>
    <rect x="690" y="116" width="252" height="176" rx="8" fill="#ffffff" stroke="#d8dee9"/>
    <text x="712" y="146" fill="#667085" font-family="Arial, sans-serif" font-size="13" font-weight="700">CREATE / REDEEM BAND</text>
    <text x="712" y="190" fill="#667085" font-family="Arial, sans-serif" font-size="15">Create Edge</text>
    <text x="848" y="190" fill="#172033" font-family="Arial, sans-serif" font-size="16" font-weight="700">142.6 bps</text>
    <text x="712" y="228" fill="#667085" font-family="Arial, sans-serif" font-size="15">Redeem Edge</text>
    <text x="846" y="228" fill="#172033" font-family="Arial, sans-serif" font-size="16" font-weight="700">-233.2 bps</text>
    <rect x="712" y="252" width="150" height="28" rx="14" fill="#dbeafe"/>
    <text x="730" y="271" fill="#2563eb" font-family="Arial, sans-serif" font-size="13" font-weight="800">CREATE PRESSURE</text>
  </g>
  <g>
    <rect x="960" y="116" width="284" height="176" rx="8" fill="#ffffff" stroke="#d8dee9"/>
    <text x="982" y="146" fill="#667085" font-family="Arial, sans-serif" font-size="13" font-weight="700">COVERAGE</text>
    <text x="982" y="190" fill="#667085" font-family="Arial, sans-serif" font-size="15">Components</text>
    <text x="1196" y="190" fill="#172033" font-family="Arial, sans-serif" font-size="16" font-weight="700">7</text>
    <text x="982" y="228" fill="#667085" font-family="Arial, sans-serif" font-size="15">Priced</text>
    <text x="1196" y="228" fill="#172033" font-family="Arial, sans-serif" font-size="16" font-weight="700">6</text>
    <text x="982" y="266" fill="#667085" font-family="Arial, sans-serif" font-size="15">Gross Basket</text>
    <text x="1132" y="266" fill="#172033" font-family="Arial, sans-serif" font-size="16" font-weight="700">$290.3k</text>
  </g>

  <rect x="36" y="316" width="290" height="330" rx="8" fill="#ffffff" stroke="#d8dee9"/>
  <text x="58" y="352" fill="#172033" font-family="Arial, sans-serif" font-size="19" font-weight="800">Controls</text>
  <rect x="58" y="374" width="246" height="36" rx="6" fill="#ffffff" stroke="#d8dee9"/>
  <text x="74" y="397" fill="#667085" font-family="Arial, sans-serif" font-size="14">All severities</text>
  <rect x="58" y="426" width="246" height="36" rx="6" fill="#ffffff" stroke="#d8dee9"/>
  <text x="74" y="449" fill="#667085" font-family="Arial, sans-serif" font-size="14">All exception types</text>
  <rect x="58" y="478" width="246" height="36" rx="6" fill="#ffffff" stroke="#d8dee9"/>
  <text x="74" y="501" fill="#667085" font-family="Arial, sans-serif" font-size="14">Ticker, rule, message</text>
  <rect x="58" y="538" width="246" height="32" rx="6" fill="#f8fafc"/>
  <text x="72" y="559" fill="#667085" font-family="Arial, sans-serif" font-size="13">LARGE WEIGHT CHANGE</text>
  <text x="278" y="559" fill="#172033" font-family="Arial, sans-serif" font-size="13" font-weight="800">6</text>
  <rect x="58" y="580" width="246" height="32" rx="6" fill="#f8fafc"/>
  <text x="72" y="601" fill="#667085" font-family="Arial, sans-serif" font-size="13">FX MISSING</text>
  <text x="286" y="601" fill="#172033" font-family="Arial, sans-serif" font-size="13" font-weight="800">1</text>

  <rect x="344" y="316" width="900" height="330" rx="8" fill="#ffffff" stroke="#d8dee9"/>
  <text x="366" y="352" fill="#172033" font-family="Arial, sans-serif" font-size="19" font-weight="800">Exception Queue</text>
  <rect x="366" y="376" width="856" height="40" fill="#f8fafc" stroke="#d8dee9"/>
  <text x="386" y="401" fill="#667085" font-family="Arial, sans-serif" font-size="12" font-weight="700">SEVERITY</text>
  <text x="500" y="401" fill="#667085" font-family="Arial, sans-serif" font-size="12" font-weight="700">RULE</text>
  <text x="616" y="401" fill="#667085" font-family="Arial, sans-serif" font-size="12" font-weight="700">ENTITY</text>
  <text x="734" y="401" fill="#667085" font-family="Arial, sans-serif" font-size="12" font-weight="700">TYPE</text>
  <text x="942" y="401" fill="#667085" font-family="Arial, sans-serif" font-size="12" font-weight="700">MESSAGE</text>
  <g font-family="Arial, sans-serif" font-size="14">
    <rect x="386" y="438" width="70" height="24" rx="12" fill="#c2410c"/><text x="405" y="455" fill="#ffffff" font-size="12" font-weight="800">HIGH</text>
    <text x="500" y="456" fill="#172033">PRICE_003</text><text x="616" y="456" fill="#172033" font-weight="700">NVDA</text><text x="734" y="456" fill="#172033">MISSING PRICE</text><text x="942" y="456" fill="#172033">No valid market price available</text>
    <rect x="386" y="492" width="70" height="24" rx="12" fill="#c2410c"/><text x="405" y="509" fill="#ffffff" font-size="12" font-weight="800">HIGH</text>
    <text x="500" y="510" fill="#172033">FX_006</text><text x="616" y="510" fill="#172033" font-weight="700">7203</text><text x="734" y="510" fill="#172033">FX MISSING</text><text x="942" y="510" fill="#172033">Missing JPY/USD FX rate</text>
    <rect x="386" y="546" width="70" height="24" rx="12" fill="#b7791f"/><text x="396" y="563" fill="#ffffff" font-size="12" font-weight="800">MEDIUM</text>
    <text x="500" y="564" fill="#172033">ETF_009</text><text x="616" y="564" fill="#172033" font-weight="700">GTEC</text><text x="734" y="564" fill="#172033">PREMIUM / DISCOUNT</text><text x="942" y="564" fill="#172033">ETF mid price is above indicative NAV</text>
  </g>
</svg>

